<svg xmlns="http://www.w3.org/2000/svg" width="23.992" height="22.659" viewBox="0 0 23.992 22.659">
  <path id="Trazado_305" data-name="Trazado 305" d="M23.992,13.89v8.769H18.849v-8.18c0-2.055-.742-3.458-2.606-3.458a2.812,2.812,0,0,0-2.637,1.86,3.4,3.4,0,0,0-.17,1.238v8.539H8.29s.07-13.855,0-15.29h5.145V9.537c-.01.017-.024.033-.034.05h.034v-.05A5.117,5.117,0,0,1,18.071,7.01c3.384,0,5.92,2.186,5.92,6.88ZM2.911,0a2.651,2.651,0,1,0-.068,5.283h.032A2.652,2.652,0,1,0,2.911,0ZM.305,22.659H5.447V7.369H.305Zm0,0" fill="#eee"/>
</svg>
