<svg xmlns="http://www.w3.org/2000/svg" width="23.997" height="30.656" viewBox="0 0 23.997 30.656">
  <path id="Trazado_302" data-name="Trazado 302" d="M14,22.236c-1.877-.146-2.665-1.07-4.138-1.96-.81,4.22-1.8,8.266-4.73,10.38C4.231,24.277,6.462,19.486,7.5,14.4c-1.766-2.959.212-8.911,3.941-7.443,4.587,1.8-3.974,10.995,1.775,12.142,6,1.2,8.449-10.346,4.728-14.1C12.567-.422,2.294,4.877,3.558,12.638c.307,1.9,2.281,2.473.787,5.092C.906,16.972-.121,14.275.011,10.68.225,4.8,5.331.674,10.455.1c6.481-.72,12.562,2.365,13.4,8.422C24.8,15.362,20.931,22.767,14,22.236Zm0,0" transform="translate(0)" fill="#eee"/>
</svg>
