<?xml version="1.0" encoding="utf-8"?>
<!-- Generator: Adobe Illustrator 23.0.2, SVG Export Plug-In . SVG Version: 6.00 Build 0)  -->
<svg version="1.1" id="Capa_1" xmlns="http://www.w3.org/2000/svg" xmlns:xlink="http://www.w3.org/1999/xlink" x="0px" y="0px"
	 viewBox="0 0 335.5 138.2" style="enable-background:new 0 0 335.5 138.2;" xml:space="preserve">
<g>
	<g>
		<path d="M60.3,6.9H17.9V1.1h42.4V6.9z M38.7,62.1h-5.8V13.6h-15V7.8h20.8V62.1z M39.7,7.8h20.7v5.8H45.4v48.5h-5.8V7.8z"/>
		<path d="M72.6,6.9h-5.8V1.1h5.8V6.9z M72.6,7.8v47.6h-5.8V7.8H72.6z M72.6,56.4v5.8h-5.8v-5.8H72.6z M73.5,6.9V1.1h33.6v5.8H73.5z
			 M73.5,32.8v-25h33.6v5.8H79.3V27h20.9v5.8H73.5z M107.5,49.6v5.8h-34V33.8h26.7v5.8H79.3v10H107.5z M73.5,56.4h34v5.8h-34V56.4z"
			/>
		<path d="M141.7,57.2c4.3,0,8.3-1,12-2.9c3.7-1.9,6.7-4.6,9-8l4.6,3.4c-2.8,4.1-6.5,7.4-10.9,9.7c-4.5,2.4-9.3,3.5-14.7,3.5
			c-8.8,0-16.2-3-22.2-9.1c-6-6.1-9-13.5-9-22.2c0-8.4,3.1-15.7,9.4-22c6.2-6.2,13.5-9.4,21.9-9.4c4.9,0,9.6,1.1,13.8,3.3
			c4.3,2.2,7.9,5.2,10.8,9.1l-4.6,3.3c-2.3-3.1-5.3-5.5-8.8-7.3c-3.5-1.8-7.3-2.6-11.4-2.6c-6.8,0-12.8,2.6-17.8,7.7
			c-5,5.2-7.5,11.1-7.5,17.9c0,7.2,2.5,13.2,7.5,18.1S134.6,57.2,141.7,57.2z M117.2,31.7c0-6.5,2.4-12.2,7.2-17.2
			c4.8-5,10.5-7.5,17.2-7.5c3.9,0,7.6,0.9,11,2.6c3.4,1.7,6.2,4,8.4,7l-4.6,3.4c-1.7-2.2-3.9-4-6.5-5.3c-2.6-1.3-5.3-1.9-8.2-1.9
			c-4.9,0-9.3,1.9-13.1,5.6c-3.8,3.7-5.7,8.2-5.7,13.3c0,5.3,1.8,9.7,5.4,13.3c3.6,3.6,8,5.4,13.4,5.4c3.3,0,6.2-0.7,9-2.2
			c2.7-1.4,4.9-3.4,6.6-6l4.6,3.4c-2.2,3.3-5.1,5.9-8.6,7.8c-3.5,1.9-7.4,2.8-11.7,2.8c-6.8,0-12.6-2.4-17.3-7.2
			S117.2,38.5,117.2,31.7z"/>
		<path d="M214.2,48.5l-35.6-35v48.6h-5.8V0.5c0-0.5,0.2-0.6,0.6-0.2l35,34.4V1h5.8V48.5z M215.2,58.5l0-57.5h5.8v61.9
			c0,0.4,0,0.7-0.1,0.7c-0.1,0.1-0.4-0.1-0.8-0.4L215.2,58.5 M185.4,29.6v32.6h-5.8V16l34.6,33.7l0,8"/>
		<path d="M259,0.3c8.6,0,16,3.1,22,9.2c6.1,6.2,9.1,13.5,9.1,22.1c0,8.8-3,16.2-9,22.3S267.8,63,259,63c-8.8,0-16.2-3-22.2-9.1
			c-6-6.1-9-13.5-9-22.2c0-8.4,3.1-15.7,9.4-22C243.4,3.4,250.7,0.3,259,0.3z M259,57.2c7,0,13-2.4,17.9-7.2s7.4-10.9,7.4-18.3
			c0-7.1-2.5-13.2-7.4-18.2c-4.9-5-11-7.5-18.1-7.5c-6.8,0-12.8,2.6-17.8,7.7c-5,5.2-7.5,11.1-7.5,17.9c0,7.2,2.5,13.2,7.5,18.1
			S252,57.2,259,57.2z M234.5,31.7c0-6.5,2.4-12.2,7.2-17.2c4.8-5,10.5-7.5,17.2-7.5c6.8,0,12.6,2.4,17.4,7.2
			c4.8,4.8,7.1,10.6,7.1,17.5c0,6.9-2.3,12.7-7,17.5c-4.7,4.8-10.5,7.1-17.5,7.1c-6.8,0-12.6-2.4-17.3-7.2S234.5,38.5,234.5,31.7z
			 M259,50.4c5.3,0,9.7-1.7,13.2-5.3c3.6-3.5,5.3-8,5.3-13.5c0-5.4-1.8-9.9-5.4-13.5c-3.6-3.6-8-5.4-13.2-5.4
			c-4.9,0-9.3,1.9-13.1,5.6c-3.8,3.7-5.7,8.2-5.7,13.3c0,5.3,1.8,9.7,5.4,13.3S253.7,50.4,259,50.4z"/>
	</g>
	<g>
		<path d="M5.8,74.9H0v-5.8h5.8V74.9z M0,109.6V75.9h5.8v33.7H0z M5.8,110.6v19.6H0v-19.6H5.8z M20.1,74.9H6.8v-5.8h13.4
			c6.6,0,12.2,2.3,16.8,6.8c4.6,4.5,6.8,10.2,6.8,16.9c0,6.6-2.3,12.1-6.8,16.7c-4.6,4.6-10.2,6.8-16.8,6.8h-7.6v13.8H6.8v-19.6
			h13.4c5,0,9.2-1.7,12.7-5.2c3.4-3.4,5.2-7.7,5.2-12.7c0-5-1.7-9.2-5.2-12.7C29.3,76.6,25.1,74.9,20.1,74.9z M20.1,75.9
			c4.7,0,8.6,1.6,11.9,4.9C35.3,84,37,88,37,92.8s-1.6,8.7-4.9,12c-3.3,3.3-7.3,4.9-11.9,4.9H6.8V75.9H20.1z M12.5,103.8h7.6
			c3,0,5.6-1.1,7.8-3.2c2.2-2.1,3.3-4.7,3.3-7.8c0-3.1-1.1-5.7-3.3-7.9c-2.2-2.2-4.8-3.3-7.8-3.3h-7.6V103.8z"/>
		<path d="M56.7,74.9h-5.8v-5.8h5.8V74.9z M50.9,109.6V75.9h5.8v33.7H50.9z M56.7,110.6v19.6h-5.8v-19.6H56.7z M71,74.9H57.7v-5.8
			H71c6.6,0,12.2,2.3,16.8,6.8c4.6,4.5,6.8,10.2,6.8,16.9c0,4.1-1,7.9-2.9,11.4c-1.9,3.5-4.5,6.3-7.8,8.4l11.8,17.6h-6.9l-13.4-20.1
			c3.9-1,7.1-3.1,9.7-6.3c2.5-3.2,3.8-6.9,3.8-11.1c0-5-1.7-9.2-5.2-12.7C80.2,76.6,76,74.9,71,74.9z M71,75.9
			c4.7,0,8.6,1.6,11.9,4.9c3.3,3.3,4.9,7.2,4.9,12s-1.6,8.7-4.9,12c-3.3,3.3-7.3,4.9-11.9,4.9H57.7V75.9H71z M71,110.6
			c1.1,0,2.2-0.1,3.3-0.3l13.4,19.9h-6.9l-9.4-13.8h-8v13.8h-5.8v-19.6H71z M63.4,103.8H71c3,0,5.6-1.1,7.8-3.2
			c2.2-2.1,3.3-4.7,3.3-7.8c0-3.1-1.1-5.7-3.3-7.9c-2.2-2.2-4.8-3.3-7.8-3.3h-7.6V103.8z"/>
		<path d="M108,74.9h-5.8v-5.8h5.8V74.9z M108,75.9v47.6h-5.8V75.9H108z M108,124.4v5.8h-5.8v-5.8H108z M109,74.9v-5.8h33.6v5.8H109
			z M109,100.9v-25h33.6v5.8h-27.8v13.4h20.9v5.8H109z M142.9,117.7v5.8h-34v-21.6h26.7v5.8h-20.9v10H142.9z M109,124.4h34v5.8h-34
			V124.4z"/>
		<path d="M177.1,125.2c4.3,0,8.3-1,12-2.9c3.7-1.9,6.7-4.6,9-8l4.6,3.4c-2.8,4.1-6.5,7.4-10.9,9.7c-4.5,2.4-9.3,3.5-14.7,3.5
			c-8.8,0-16.2-3-22.2-9.1c-6-6.1-9-13.5-9-22.2c0-8.4,3.1-15.7,9.4-22c6.2-6.2,13.5-9.4,21.9-9.4c4.9,0,9.6,1.1,13.8,3.3
			c4.3,2.2,7.9,5.2,10.8,9.1l-4.6,3.3c-2.3-3.1-5.3-5.5-8.8-7.3c-3.5-1.8-7.3-2.6-11.4-2.6c-6.8,0-12.8,2.6-17.8,7.7
			c-5,5.2-7.5,11.1-7.5,17.9c0,7.2,2.5,13.2,7.5,18.1C164,122.8,170,125.2,177.1,125.2z M152.6,99.8c0-6.5,2.4-12.2,7.2-17.2
			c4.8-5,10.5-7.5,17.2-7.5c3.9,0,7.6,0.9,11,2.6c3.4,1.7,6.2,4,8.4,7l-4.6,3.4c-1.7-2.2-3.9-4-6.5-5.3c-2.6-1.3-5.3-1.9-8.2-1.9
			c-4.9,0-9.3,1.9-13.1,5.6c-3.8,3.7-5.7,8.2-5.7,13.3c0,5.3,1.8,9.7,5.4,13.3s8,5.4,13.4,5.4c3.3,0,6.2-0.7,9-2.2
			c2.7-1.4,4.9-3.4,6.6-6l4.6,3.4c-2.2,3.3-5.1,5.9-8.6,7.8c-3.5,1.9-7.4,2.8-11.7,2.8c-6.8,0-12.6-2.4-17.3-7.2
			C154.9,112.4,152.6,106.6,152.6,99.8z"/>
		<path d="M214.2,57.5v72.7h-5.8V52L214.2,57.5z M215.2,58.5L221,63v67.3h-5.8V58.5z"/>
		<path d="M258.7,68.3c8.6,0,16,3.1,22,9.2c6.1,6.2,9.1,13.5,9.1,22.1c0,8.8-3,16.2-9,22.3c-6,6.1-13.4,9.1-22.2,9.1
			c-8.8,0-16.2-3-22.2-9.1c-6-6.1-9-13.5-9-22.2c0-8.4,3.1-15.7,9.4-22C243,71.5,250.3,68.3,258.7,68.3z M258.7,125.2
			c7,0,13-2.4,17.9-7.2c4.9-4.8,7.4-10.9,7.4-18.3c0-7.1-2.5-13.2-7.4-18.2c-4.9-5-11-7.5-18.1-7.5c-6.8,0-12.8,2.6-17.8,7.7
			c-5,5.2-7.5,11.1-7.5,17.9c0,7.2,2.5,13.2,7.4,18.1C245.6,122.8,251.6,125.2,258.7,125.2z M234.2,99.8c0-6.5,2.4-12.2,7.2-17.2
			c4.8-5,10.5-7.5,17.2-7.5c6.8,0,12.6,2.4,17.4,7.2c4.8,4.8,7.1,10.6,7.1,17.5c0,6.9-2.3,12.7-7,17.5c-4.7,4.8-10.5,7.1-17.5,7.1
			c-6.8,0-12.6-2.4-17.3-7.2C236.5,112.4,234.2,106.6,234.2,99.8z M258.7,118.5c5.3,0,9.7-1.7,13.2-5.3c3.6-3.5,5.3-8,5.3-13.5
			c0-5.4-1.8-9.9-5.4-13.5c-3.6-3.6-8-5.4-13.2-5.4c-4.9,0-9.3,1.9-13.1,5.6c-3.8,3.7-5.7,8.2-5.7,13.3c0,5.3,1.8,9.7,5.4,13.3
			S253.4,118.5,258.7,118.5z"/>
		<path d="M313.8,138.2H308v-8c-2.6-0.7-4.9-1.7-7-3.2c-2.1-1.5-3.6-2.8-4.6-3.9c-0.9-1.1-1.7-2.2-2.4-3.3l4.7-3.4
			c0.4,0.7,1,1.5,1.6,2.2c0.6,0.8,1.5,1.7,2.7,2.8c1.2,1.1,2.7,2,4.6,2.6c1.9,0.7,3.9,1,6.1,1.1V138.2z M313.7,60.9V74
			c-4.1,0.1-7.3,1.1-9.8,3.1s-3.7,4.5-3.7,7.6c0,3.5,1.1,6.1,3.2,8c2.1,1.9,5.4,3.9,10,5.9c0.2,0.1,1.1,0.5,2.7,1.2
			c1.7,0.7,2.8,1.3,3.5,1.6c0.7,0.3,1.7,0.9,3.2,1.8c1.5,0.9,2.5,1.7,3.1,2.5c0.6,0.8,1.2,1.9,1.8,3.2s0.9,2.7,0.9,4.2
			c0,3.1-1.2,5.7-3.7,7.9c-2.5,2.2-6.1,3.3-10.7,3.3c-6.3,0-11.2-2.8-14.7-8.4l4.6-3.3c2.9,3.9,6.1,5.8,9.8,5.9
			c2.6,0.1,4.7-0.3,6.3-1.2c1.6-0.9,2.4-2.3,2.4-4.1c0-2.3-1.5-4.4-4.4-6.1c-1.1-0.6-4.2-2.1-9.5-4.4c-4.7-2.1-8.3-4.5-10.7-7.3
			c-2.4-2.8-3.7-6.4-3.7-10.7c0-3.9,1.2-7.2,3.6-10.1c2.4-2.8,5.7-4.8,9.7-5.7v-8.1H313.7z M320.6,138.2h-5.8v-12.9
			c4.6-0.1,8.3-1.3,10.9-3.7c2.7-2.4,4-5.2,4-8.6c0-1.1-0.1-2.1-0.3-3.1c-0.2-1-0.6-1.8-1.1-2.6c-0.5-0.8-1-1.5-1.5-2.2
			c-0.5-0.7-1.1-1.3-2-1.9c-0.9-0.6-1.6-1.1-2.1-1.5c-0.5-0.4-1.3-0.9-2.4-1.3c-1.1-0.5-1.8-0.8-2.2-1.1c-0.4-0.2-1.2-0.5-2.3-1
			c-1.1-0.4-1.7-0.7-1.9-0.7c-4.5-1.8-7.7-3.7-9.6-5.6c-2-1.9-3-4.3-3-7.2c0-2.9,1.1-5.2,3.3-7c2.2-1.8,5.3-2.7,9.2-2.7
			c6.3,0,10.9,2,13.8,6l-4.6,3.4c-2-2.4-5-3.7-9-3.7c-2.2,0-3.9,0.4-5,1.1c-1.2,0.7-1.8,1.7-1.8,2.8c0,1.5,0.6,2.8,1.9,3.8
			c1.2,1,4,2.4,8.2,4.2c6.1,2.6,10.6,5.3,13.7,8.3s4.6,6.9,4.6,11.8c0,4.4-1.4,8.2-4.1,11.3c-2.7,3.1-6.3,5.2-10.8,6.2V138.2z
			 M328.5,80.5c-3-4.1-7.6-6.3-13.8-6.4V60.9h5.8v8.1c5.6,1.4,9.8,4,12.7,8L328.5,80.5z"/>
	</g>
</g>
<g>
</g>
<g>
</g>
<g>
</g>
<g>
</g>
<g>
</g>
<g>
</g>
</svg>
