<svg xmlns="http://www.w3.org/2000/svg" width="26.657" height="21.326" viewBox="0 0 26.657 21.326">
  <path id="Trazado_304" data-name="Trazado 304" d="M26.657,2.525a11.064,11.064,0,0,1-3.141.847A5.429,5.429,0,0,0,25.923.394,11.1,11.1,0,0,1,22.449,1.7,5.5,5.5,0,0,0,18.456,0a5.427,5.427,0,0,0-5.469,5.383,5.3,5.3,0,0,0,.141,1.228A15.609,15.609,0,0,1,1.856.984a5.287,5.287,0,0,0-.741,2.707A5.362,5.362,0,0,0,3.547,8.173,5.506,5.506,0,0,1,1.07,7.5v.069a5.409,5.409,0,0,0,4.387,5.278,5.548,5.548,0,0,1-2.47.094A5.467,5.467,0,0,0,8.1,16.678a11.08,11.08,0,0,1-6.793,2.3A11.055,11.055,0,0,1,0,18.907a15.656,15.656,0,0,0,8.382,2.419A15.33,15.33,0,0,0,23.945,6.007c0-.233-.006-.465-.016-.7a11.007,11.007,0,0,0,2.728-2.786Zm0,0" fill="#eee"/>
</svg>
