<svg xmlns="http://www.w3.org/2000/svg" width="339" height="199" viewBox="0 0 339 199">
  <g id="VIsa_Card" data-name="VIsa Card" transform="translate(-1233 -271)">
    <rect id="back_card" data-name="back card" width="339" height="199" rx="18" transform="translate(1233 271)" fill="#8d8f97"/>
    <g id="Visa_icon_" data-name="Visa icon " transform="translate(37875.453 -37525.34)">
      <path id="Trazado_13" data-name="Trazado 13" d="M-35854.844,37838.207l-4.836,22.285h5.863l4.691-22.285Z" transform="translate(-731.717 -12.986)" fill="#fff"/>
      <path id="Trazado_14" data-name="Trazado 14" d="M-36595.062,37833.879l-6.012,15.105-2.492-12.906a2.644,2.644,0,0,0-2.645-2.2h-9.816l-.148.586a25.837,25.837,0,0,1,5.715,1.906c.883.438,1.031.879,1.32,1.906l4.547,17.738h6.16l9.383-22.285h-6.012Z" transform="translate(0 -8.656)" fill="#fff"/>
      <path id="Trazado_15" data-name="Trazado 15" d="M-35055.727,37838.207h-4.988a2.563,2.563,0,0,0-2.492,1.613l-8.648,20.672h6.008l1.176-3.371h7.332l.73,3.371h5.281Zm-7.039,14.371,3.078-8.363,1.762,8.363Z" transform="translate(-1493.736 -12.986)" fill="#fff"/>
      <path id="Trazado_16" data-name="Trazado 16" d="M-35551.414,37831.379c0-.73.734-1.609,2.492-1.906a10.872,10.872,0,0,1,5.719,1.031l1.023-4.7a16.99,16.99,0,0,0-5.422-1.023c-5.719,0-9.676,3.078-9.676,7.328,0,3.227,2.93,4.988,4.988,6.012,2.2,1.027,2.926,1.762,2.926,2.789,0,1.465-1.754,2.2-3.516,2.2a10.952,10.952,0,0,1-5.867-1.465l-1.023,4.836a17.381,17.381,0,0,0,6.449,1.176c6.016,0,9.973-2.93,9.973-7.621C-35543.348,37834.457-35551.559,37834.02-35551.414,37831.379Z" transform="translate(-1021.804 -0.004)" fill="#fff"/>
    </g>
    <g id="DOts">
      <text id="_" data-name="****" transform="translate(1264 390)" fill="#fff" font-size="19" font-family="TwCenMT-Regular, Tw Cen MT"><tspan x="0" y="0">****</tspan></text>
      <text id="_2" data-name="****" transform="translate(1343 390)" fill="#fff" font-size="19" font-family="TwCenMT-Regular, Tw Cen MT"><tspan x="0" y="0">****</tspan></text>
      <text id="_3" data-name="****" transform="translate(1422 390)" fill="#fff" font-size="19" font-family="TwCenMT-Regular, Tw Cen MT"><tspan x="0" y="0">****</tspan></text>
      <text id="_4" data-name="****" transform="translate(1501 390)" fill="#fff" font-size="19" font-family="TwCenMT-Regular, Tw Cen MT"><tspan x="0" y="0">****</tspan></text>
    </g>
    <text id="_12_20" data-name="12/20" transform="translate(1488 445)" fill="#fff" font-size="20" font-family="TwCenMT-Regular, Tw Cen MT"><tspan x="0" y="0">12/20</tspan></text>
    <text id="Pepe_Argento" data-name="Pepe Argento" transform="translate(1264 439)" fill="#fff" font-size="20" font-family="TwCenMT-Regular, Tw Cen MT"><tspan x="0" y="0">Pepe Argento</tspan></text>
    <g id="Visa_icon_2" data-name="Visa icon " transform="translate(38003.453 -37549.34)" opacity="0.034">
      <path id="Trazado_13-2" data-name="Trazado 13" d="M-35847.332,37838.215l-12.352,56.9h14.969l11.984-56.9Z" transform="translate(-693.225 -12.311)" fill="#fff"/>
      <path id="Trazado_14-2" data-name="Trazado 14" d="M-36562.273,37834.113l-15.352,38.57-6.359-32.953a6.751,6.751,0,0,0-6.75-5.617h-25.07l-.375,1.5a66.107,66.107,0,0,1,14.594,4.867c2.25,1.117,2.633,2.242,3.367,4.867l11.609,45.289h15.727l23.961-56.9h-15.352Z" transform="translate(0.004 -8.209)" fill="#fff"/>
      <path id="Trazado_15-2" data-name="Trazado 15" d="M-35030.676,37838.215h-12.734a6.554,6.554,0,0,0-6.367,4.117l-22.078,52.781h15.336l3.008-8.609h18.719l1.859,8.609h13.484Zm-17.969,36.688,7.852-21.352,4.5,21.352Z" transform="translate(-1415.166 -12.311)" fill="#fff"/>
      <path id="Trazado_16-2" data-name="Trazado 16" d="M-35538.441,37841.625c0-1.867,1.875-4.109,6.367-4.867,2.25-.367,7.867-.367,14.6,2.633l2.609-11.984a43.359,43.359,0,0,0-13.844-2.617c-14.6,0-24.7,7.859-24.7,18.711,0,8.242,7.484,12.734,12.734,15.352,5.609,2.625,7.477,4.5,7.477,7.117,0,3.742-4.484,5.609-8.977,5.609-7.484,0-11.609-1.867-14.984-3.742l-2.609,12.344a44.3,44.3,0,0,0,16.461,3.008c15.359,0,25.469-7.484,25.469-19.461C-35517.84,37849.484-35538.809,37848.367-35538.441,37841.625Z" transform="translate(-968.057 -0.008)" fill="#fff"/>
    </g>
  </g>
</svg>
